# xmcd
#
# Track frame offsets: 
#        150
#        11260
#        24520
#        36033
#        47669
#        59839
#        70096
#        81062
#
# Disc length: 2164 seconds
#
# Revision: 0
# Processed by: cddbd v1.5.2PL0 Copyright (c) Steve Scherf et al.
# Submitted via: ExactAudioCopy v1.0b4
#
DISCID=5d087208
DTITLE=Brook Benton - La Grande Stroria Del Rock 54 - Face A
DYEAR=1900
DGENRE=Blues
TTITLE0=A Rockin' Good Way
TTITLE1=You' ve Got What It Takes
TTITLE2=So Many Ways
TTITLE3=The Same One
TTITLE4=Kiddio
TTITLE5=Lie To Me
TTITLE6=Endlessly
TTITLE7=La Grande Storia Del Rock 54 - Face A - Brook Benton 01-07
EXTD=
EXTT0=
EXTT1=
EXTT2=
EXTT3=
EXTT4=
EXTT5=
EXTT6=
EXTT7=
PLAYORDER=
